#!OML:ASF X:\für Bonn\!DataBase\2005_08_11_Bastian_Final\c3d\Bastian.ASF
:FULLY-SPECIFIED
:DEGREES
154
root -0.868207 15.8983 23.5338 -733.188 -193.522 -723.847
lowerback 56.8872 -14.0522 0.196979
upperback 17.2183 -6.30665 5.55722
thorax -1.28076 0.075669 8.31664
lowerneck -26.8015 1.56624 -0.151615
upperneck -8.30988 3.91814 -4.2416
head 1.85177 2.58146 -0.99337
rclavicle -6.20208e-014 3.89618e-014
rhumerus 4.43688 11.9016 -62.761
rradius 31.8774
rwrist -8.2169
rhand -22.7508 3.47712
rfingers 7.12502
rthumb 3.68377 -26.4708
lclavicle -6.20208e-014 3.89618e-014
lhumerus 11.6564 -31.0208 61.5202
lradius 46.4287
lwrist 21.6568
lhand -11.2795 -12.3485
lfingers 7.12502
lthumb 14.7512 17.1066
rfemur -28.1454 -2.11282 15.4774
rtibia 59.8883
rfoot -12.5954 1.39663
rtoes -5.69445
lfemur -25.2411 11.2775 -25.1547
ltibia 52.0825
lfoot -11.1175 -3.76261
ltoes -9.9183
155
root -0.880827 15.8121 23.5831 -733.128 -193.763 -723.901
lowerback 57.7176 -14.019 -0.0345987
upperback 17.2596 -6.18245 5.5707
thorax -1.27548 0.155999 8.40613
lowerneck -26.8001 1.59681 -0.258979
upperneck -8.63009 4.01828 -4.31973
head 1.73714 2.65771 -0.993887
rclavicle 2.38542e-014 -8.74653e-015
rhumerus 5.14999 11.8041 -62.4464
rradius 31.8391
rwrist -8.27391
rhand -22.8495 3.49801
rfingers 7.12502
rthumb 3.58842 -26.4515
lclavicle 2.38542e-014 -8.74653e-015
lhumerus 12.5316 -30.7869 60.1469
lradius 46.4995
lwrist 21.4539
lhand -11.1886 -12.2938
lfingers 7.12502
lthumb 14.8388 17.1549
rfemur -29.1755 -2.18115 15.499
rtibia 61.0468
rfoot -12.8653 1.63591
rtoes -5.67027
lfemur -26.2955 11.2991 -25.2109
ltibia 53.4326
lfoot -11.4247 -3.91225
ltoes -9.36919
156
root -0.891457 15.7224 23.6302 -733.077 -193.956 -723.924
lowerback 58.5185 -14.0231 -0.214067
upperback 17.2776 -6.08895 5.56754
thorax -1.28856 0.224879 8.46375
lowerneck -26.7203 1.62961 -0.337347
upperneck -8.93754 4.10306 -4.4004
head 1.61522 2.72274 -1.00305
rclavicle 3.18055e-015 -7.23576e-014
rhumerus 5.75338 11.719 -62.1937
rradius 31.8256
rwrist -8.35527
rhand -22.9562 3.49414
rfingers 7.12502
rthumb 3.4854 -26.4571
lclavicle 3.18055e-015 -7.23576e-014
lhumerus 13.3653 -30.573 58.7464
lradius 46.5401
lwrist 21.3118
lhand -11.0745 -12.2182
lfingers 7.12502
lthumb 14.9487 17.2223
rfemur -30.1843 -2.28531 15.5549
rtibia 62.2327
rfoot -13.1491 1.81492
rtoes -5.66901
lfemur -27.3229 11.2974 -25.219
ltibia 54.8232
lfoot -11.7843 -4.08178
ltoes -8.54636
157
root -0.900263 15.6292 23.6747 -733.028 -194.122 -723.957
lowerback 59.2593 -14.0351 -0.413319
upperback 17.3151 -6.02519 5.55874
thorax -1.26768 0.277079 8.53252
lowerneck -26.6214 1.66785 -0.47082
upperneck -9.26871 4.21013 -4.40833
head 1.47889 2.80524 -0.976976
rclavicle -2.06736e-014 -1.145e-013
rhumerus 6.35881 11.6736 -61.9318
rradius 31.8308
rwrist -8.43396
rhand -23.0579 3.45278
rfingers 7.12502
rthumb 3.38717 -26.5001
lclavicle -2.06736e-014 -1.145e-013
lhumerus 14.1676 -30.3622 57.2731
lradius 46.5717
lwrist 21.2629
lhand -11.0097 -12.1915
lfingers 7.12502
lthumb 15.0111 17.2444
rfemur -31.1848 -2.38699 15.5894
rtibia 63.4433
rfoot -13.4601 2.00494
rtoes -5.76549
lfemur -28.3571 11.2823 -25.2343
ltibia 56.2473
lfoot -12.1526 -4.23234
ltoes -7.55014
